<?xml version="1.0" encoding="UTF-8" standalone="no"?>
<!-- Created with Inkscape (http://www.inkscape.org/) -->

<svg
   xmlns:dc="http://purl.org/dc/elements/1.1/"
   xmlns:cc="http://creativecommons.org/ns#"
   xmlns:rdf="http://www.w3.org/1999/02/22-rdf-syntax-ns#"
   xmlns:svg="http://www.w3.org/2000/svg"
   xmlns="http://www.w3.org/2000/svg"
   xmlns:sodipodi="http://sodipodi.sourceforge.net/DTD/sodipodi-0.dtd"
   xmlns:inkscape="http://www.inkscape.org/namespaces/inkscape"
   width="84.063469mm"
   height="24.096045mm"
   viewBox="0 0 84.063469 24.096045"
   version="1.1"
   id="svg8432"
   inkscape:version="0.92.3 (2405546, 2018-03-11)"
   sodipodi:docname="reactome_gsa_logo.svg"
   inkscape:export-filename="/home/jg/Research/18-10_ReactomeGSA/materials/reactome_gsa_logo.png"
   inkscape:export-xdpi="299"
   inkscape:export-ydpi="299">
  <defs
     id="defs8426">
    <linearGradient
       spreadMethod="pad"
       gradientUnits="userSpaceOnUse"
       y2="593.78699"
       y1="3.6658268"
       x2="590.86261"
       x1="0.7414425"
       id="gradientFill-1"
       gradientTransform="scale(1.2219423,0.81836924)">
      <stop
         id="stop4704"
         stop-opacity="1"
         stop-color="rgb(203,206,208)"
         offset="0" />
      <stop
         id="stop4706"
         stop-opacity="1"
         stop-color="rgb(132,131,139)"
         offset="1" />
    </linearGradient>
    <linearGradient
       spreadMethod="pad"
       gradientUnits="userSpaceOnUse"
       y2="553.44208"
       y1="151.4006"
       x2="703.0675"
       x1="301.02603"
       id="gradientFill-2"
       gradientTransform="scale(0.9899476,1.0101545)">
      <stop
         id="stop4709"
         stop-opacity="1"
         stop-color="rgb(39,109,195)"
         offset="0" />
      <stop
         id="stop4711"
         stop-opacity="1"
         stop-color="rgb(22,92,170)"
         offset="1" />
    </linearGradient>
  </defs>
  <sodipodi:namedview
     id="base"
     pagecolor="#ffffff"
     bordercolor="#666666"
     borderopacity="1.0"
     inkscape:pageopacity="0.0"
     inkscape:pageshadow="2"
     inkscape:zoom="1.4"
     inkscape:cx="181.56799"
     inkscape:cy="96.307063"
     inkscape:document-units="mm"
     inkscape:current-layer="layer1"
     showgrid="false"
     fit-margin-top="0"
     fit-margin-left="0"
     fit-margin-right="0"
     fit-margin-bottom="0"
     inkscape:window-width="1920"
     inkscape:window-height="1043"
     inkscape:window-x="2560"
     inkscape:window-y="0"
     inkscape:window-maximized="1" />
  <metadata
     id="metadata8429">
    <rdf:RDF>
      <cc:Work
         rdf:about="">
        <dc:format>image/svg+xml</dc:format>
        <dc:type
           rdf:resource="http://purl.org/dc/dcmitype/StillImage" />
        <dc:title></dc:title>
      </cc:Work>
    </rdf:RDF>
  </metadata>
  <g
     inkscape:label="Layer 1"
     inkscape:groupmode="layer"
     id="layer1"
     transform="translate(312.66269,93.024218)">
    <g
       id="g7406"
       transform="translate(-51.965566,-212.85618)">
      <g
         transform="matrix(0.02400001,0,0,0.02400001,-256.55844,124.54186)"
         id="g4734">
        <path
           style="fill:url(#gradientFill-1);fill-rule:evenodd"
           inkscape:connector-curvature="0"
           d="M 361.453,485.937 C 162.329,485.937 0.906,377.828 0.906,244.469 0.906,111.109 162.329,3 361.453,3 560.578,3 722,111.109 722,244.469 722,377.828 560.578,485.937 361.453,485.937 Z M 416.641,97.406 c -151.352,0 -274.047,73.908 -274.047,165.078 0,91.17 122.695,165.078 274.047,165.078 151.351,0 263.046,-50.529 263.046,-165.078 0,-114.513 -111.695,-165.078 -263.046,-165.078 z"
           id="path4716" />
        <path
           style="fill:url(#gradientFill-2);fill-rule:evenodd"
           inkscape:connector-curvature="0"
           d="m 550,377 c 0,0 21.822,6.585 34.5,13 4.399,2.226 12.01,6.668 17.5,12.5 5.378,5.712 8,11.5 8,11.5 L 696,559 557,559.062 492,437 c 0,0 -13.31,-22.869 -21.5,-29.5 -6.832,-5.531 -9.745,-7.5 -16.5,-7.5 -4.702,0 -33.026,0 -33.026,0 L 421,558.974 298,559.026 V 152.938 h 247 c 0,0 112.5,2.029 112.5,109.062 0,107.033 -107.5,115 -107.5,115 z m -53.5,-135.976 -74.463,-0.048 -0.037,69.05 74.5,-0.024 c 0,0 34.5,-0.107 34.5,-35.125 0,-35.722 -34.5,-33.853 -34.5,-33.853 z"
           id="path4718" />
      </g>
      <text
         id="text1920-6"
         y="134.17499"
         x="-208.51855"
         style="font-style:normal;font-variant:normal;font-weight:bold;font-stretch:normal;font-size:7.10350037px;line-height:1.25;font-family:sans-serif;-inkscape-font-specification:'sans-serif, Bold';font-variant-ligatures:normal;font-variant-caps:normal;font-variant-numeric:normal;font-feature-settings:normal;text-align:center;letter-spacing:0px;word-spacing:0px;writing-mode:lr-tb;text-anchor:middle;fill:#195faf;fill-opacity:1;stroke:none;stroke-width:0.33297655"
         xml:space="preserve"><tspan
           style="font-style:normal;font-variant:normal;font-weight:bold;font-stretch:normal;font-size:7.10350037px;font-family:sans-serif;-inkscape-font-specification:'sans-serif, Bold';font-variant-ligatures:normal;font-variant-caps:normal;font-variant-numeric:normal;font-feature-settings:normal;text-align:center;writing-mode:lr-tb;text-anchor:middle;fill:#195faf;fill-opacity:1;stroke-width:0.33297655"
           y="134.17499"
           x="-208.51855"
           id="tspan1918-1"
           sodipodi:role="line">ReactomeGSA</tspan></text>
      <rect
         style="opacity:1;fill:none;fill-opacity:0.97254902;stroke:#195fae;stroke-width:0.83839452;stroke-linejoin:round;stroke-miterlimit:4;stroke-dasharray:none;stroke-dashoffset:0;stroke-opacity:1"
         id="rect5042-2"
         width="83.225075"
         height="23.25765"
         x="-260.27792"
         y="120.25116"
         ry="3.2578809" />
    </g>
  </g>
</svg>
